<?xml version="1.0" standalone="no"?>
<!DOCTYPE svg PUBLIC "-//W3C//DTD SVG 20010904//EN"
 "http://www.w3.org/TR/2001/REC-SVG-20010904/DTD/svg10.dtd">
<svg version="1.0" xmlns="http://www.w3.org/2000/svg"
 width="1000.000000pt" height="1000.000000pt" viewBox="0 0 1000.000000 1000.000000"
 preserveAspectRatio="xMidYMid meet">
<metadata>
Created by potrace 1.14, written by Peter Selinger 2001-2017
</metadata>
<g transform="translate(0.000000,1000.000000) scale(0.100000,-0.100000)"
fill="#000000" stroke="none">
<path d="M1358 9993 c6 -2 18 -2 25 0 6 3 1 5 -13 5 -14 0 -19 -2 -12 -5z"/>
<path d="M3268 9978 c-10 -12 -18 -26 -18 -30 0 -4 -7 -8 -15 -8 -8 0 -15 -9
-15 -19 0 -18 3 -19 33 -9 17 6 37 14 42 18 6 4 35 13 65 19 30 7 75 17 99 22
111 25 158 23 229 -6 37 -16 84 -39 104 -52 21 -13 42 -23 48 -23 16 0 81 -44
112 -75 15 -15 38 -49 50 -75 26 -54 58 -76 88 -60 10 5 36 9 57 9 21 -1 29
-4 19 -6 -10 -3 -30 -18 -43 -34 -14 -16 -33 -29 -43 -29 -11 0 -36 -11 -56
-25 -20 -14 -45 -25 -55 -25 -10 0 -28 -13 -40 -30 -12 -16 -35 -32 -50 -35
-17 -4 -35 -19 -46 -37 -12 -20 -34 -36 -63 -47 -29 -11 -46 -24 -49 -36 -4
-25 -30 -44 -60 -45 -18 0 -22 -4 -18 -20 3 -10 -1 -24 -9 -31 -10 -8 -14 -8
-14 0 0 6 -7 11 -15 11 -10 0 -15 -10 -15 -31 0 -17 -5 -40 -12 -52 -7 -12
-13 -26 -14 -32 0 -5 -2 -16 -2 -22 -1 -7 -16 -13 -33 -13 -23 0 -30 -4 -26
-15 4 -8 2 -17 -3 -20 -6 -4 -7 -17 -4 -30 5 -20 1 -25 -20 -31 -27 -7 -33
-23 -15 -41 8 -8 6 -18 -5 -36 -15 -21 -15 -26 -2 -37 13 -10 20 -8 42 9 15
12 37 21 49 21 23 0 138 53 165 76 39 33 178 62 220 46 16 -6 31 -6 42 1 12 8
24 7 45 -3 15 -7 50 -12 76 -11 28 2 54 -2 63 -10 13 -11 14 -9 9 14 -6 24 8
40 17 20 5 -12 91 -53 110 -53 9 0 19 4 22 8 3 5 25 8 50 7 42 -2 44 -1 35 17
-6 11 -9 22 -6 24 2 3 34 5 71 5 61 1 66 2 61 20 -7 22 -2 23 26 8 15 -7 24
-7 34 1 11 9 23 7 54 -11 38 -21 41 -21 74 -5 20 9 43 13 54 9 16 -6 16 -5 4
10 -7 9 -10 17 -6 17 4 0 2 7 -5 15 -16 19 -7 19 33 -2 51 -26 109 -34 129
-16 12 11 21 12 37 4 43 -23 63 -4 38 37 -5 7 -4 12 2 12 6 0 11 -4 11 -9 0
-5 10 -9 23 -9 58 -1 108 -9 119 -20 16 -16 28 -15 28 3 0 11 11 15 43 15 24
0 48 5 55 12 9 9 16 7 32 -7 14 -13 24 -15 28 -9 9 14 115 10 120 -4 2 -6 24
-8 56 -5 47 5 66 0 152 -35 55 -22 117 -44 139 -48 22 -4 49 -13 60 -20 11 -8
29 -14 40 -14 12 0 43 -11 71 -24 27 -12 62 -26 78 -30 28 -7 47 -20 134 -92
20 -17 42 -33 49 -35 17 -6 222 -190 333 -300 43 -42 110 -155 110 -185 0 -6
25 -37 55 -67 37 -37 55 -63 55 -80 0 -13 8 -35 19 -48 10 -13 20 -33 22 -44
3 -11 24 -30 48 -44 23 -13 51 -36 60 -52 10 -16 20 -27 22 -25 2 2 12 -11 21
-30 17 -32 17 -34 -2 -44 -20 -11 -18 -30 12 -88 10 -18 8 -24 -6 -35 -17 -13
-17 -15 -2 -45 9 -17 16 -40 16 -52 0 -11 7 -23 15 -26 8 -4 15 -11 15 -16 0
-5 9 -21 19 -35 17 -20 18 -29 9 -49 -10 -21 -8 -28 19 -57 17 -17 33 -43 37
-57 3 -14 3 -19 0 -12 -7 15 -24 16 -24 2 0 -6 17 -34 39 -63 53 -72 62 -91
67 -150 6 -55 16 -80 46 -114 13 -13 18 -29 14 -41 -8 -24 9 -73 31 -89 12 -9
20 -9 35 0 16 10 22 8 39 -13 10 -14 23 -30 29 -37 13 -15 13 -26 1 -18 -5 3
-12 1 -16 -5 -3 -6 2 -13 12 -16 10 -3 26 -10 35 -15 26 -13 28 -12 28 20 0
16 6 31 13 34 9 3 9 11 1 35 -9 23 -9 32 0 35 8 3 8 16 -1 50 -7 26 -13 67
-13 91 0 25 -5 57 -11 73 -6 15 -12 62 -13 103 -1 57 -7 84 -24 113 -12 21
-22 51 -22 67 0 16 -4 32 -10 35 -5 3 -10 21 -10 38 0 18 -7 41 -15 51 -8 11
-15 27 -15 37 0 9 -14 48 -31 85 -42 95 -47 105 -54 134 -4 14 -16 45 -27 70
-30 69 -63 141 -83 182 -18 38 -17 91 3 217 9 52 2 202 -14 291 -4 25 -7 54
-6 65 7 129 7 127 -42 214 -61 108 -66 122 -77 204 -6 49 -5 85 5 130 21 94
55 219 68 251 14 35 13 61 -6 141 -8 33 -22 94 -31 135 -9 41 -24 96 -33 123
l-16 47 -1850 0 -1851 0 -17 -22z m1387 -178 c-3 -5 -21 -10 -40 -10 -19 0
-36 -4 -40 -10 -3 -5 -12 -7 -20 -4 -8 4 -12 10 -9 15 3 5 9 7 14 4 4 -3 19
-1 32 4 31 13 71 13 63 1z m355 -10 c0 -5 -11 -10 -24 -10 -14 0 -28 5 -31 10
-4 6 7 10 24 10 17 0 31 -4 31 -10z m-530 -20 c0 -5 -17 -12 -37 -15 -33 -5
-109 -22 -190 -42 -13 -3 -23 -1 -23 4 0 15 84 45 104 37 9 -3 22 -2 29 4 22
19 117 29 117 12z m-406 -606 c23 -9 20 -24 -4 -24 -11 0 -20 7 -20 15 0 17 2
18 24 9z m2956 -1239 c11 -13 10 -14 -4 -9 -9 3 -16 10 -16 15 0 13 6 11 20
-6z"/>
<path d="M2695 8155 c-33 -13 -81 -30 -106 -39 -42 -15 -99 -54 -206 -140 -52
-42 -136 -75 -223 -87 -95 -14 -149 -3 -267 53 -23 11 -47 17 -52 13 -6 -3
-27 1 -47 10 -47 19 -97 19 -136 -1 -46 -24 -78 -32 -213 -58 -102 -19 -137
-21 -231 -15 -61 4 -130 12 -152 18 -22 6 -69 9 -104 6 -97 -8 -119 -7 -173 6
-60 14 -102 14 -121 -1 -19 -17 -101 -10 -159 13 -96 37 -111 39 -173 21 -51
-14 -140 -56 -284 -132 l-48 -26 0 -3313 0 -3313 48 19 c26 10 67 27 92 37 25
10 70 35 102 56 50 35 110 65 303 153 124 57 359 137 390 132 34 -5 85 14 106
39 19 24 131 74 264 119 61 20 126 45 145 55 19 11 60 29 90 42 30 12 77 35
105 51 27 16 72 38 100 48 27 11 70 29 95 41 120 55 130 58 223 58 51 0 97 -4
102 -8 6 -4 12 -25 14 -47 6 -83 41 -71 41 14 0 44 5 65 21 85 23 30 75 60 89
51 13 -8 19 7 50 118 45 166 73 217 128 230 31 7 47 -25 43 -91 -1 -30 7 -84
18 -127 14 -51 21 -105 21 -169 0 -98 5 -126 23 -126 14 0 2 181 -16 240 -7
25 -12 59 -11 75 1 17 -2 82 -8 146 -13 143 -1 224 47 325 38 79 73 111 104
94 31 -16 33 -43 15 -141 -14 -77 -15 -99 -4 -127 9 -25 10 -65 4 -146 -9
-132 -7 -167 8 -204 7 -15 13 -83 14 -152 1 -102 5 -136 23 -184 14 -36 26
-99 30 -160 6 -68 17 -126 36 -176 15 -41 37 -127 50 -190 27 -131 40 -174 67
-212 23 -34 69 -145 113 -273 19 -55 44 -118 55 -140 11 -21 20 -46 20 -55 0
-8 6 -27 14 -42 8 -15 20 -53 26 -85 7 -32 30 -93 53 -136 l40 -79 -16 -46
c-10 -28 -15 -62 -12 -82 6 -40 -6 -66 -27 -57 -8 3 -34 38 -59 79 -24 40 -66
100 -93 133 -47 59 -116 188 -116 219 0 23 -39 134 -63 181 -30 57 -54 126
-83 234 -13 52 -41 129 -61 170 -31 65 -38 91 -45 181 -5 58 -15 132 -23 166
-8 33 -17 107 -21 165 -6 99 -26 180 -41 165 -11 -11 -3 -165 13 -261 11 -62
14 -113 9 -165 -10 -105 -7 -153 15 -245 10 -44 24 -114 30 -155 7 -45 24
-102 44 -145 52 -108 65 -142 88 -234 28 -115 48 -159 111 -244 30 -40 70 -97
89 -127 41 -64 62 -84 120 -116 81 -44 103 -53 170 -70 58 -14 68 -21 77 -45
l10 -29 130 0 c78 0 132 4 136 10 4 6 21 8 42 4 l36 -7 -6 52 c-4 30 -2 51 3
51 6 0 10 -7 10 -15 0 -8 4 -15 9 -15 5 0 16 -18 25 -40 23 -57 38 -51 30 13
-3 28 -10 68 -15 87 -6 23 -5 46 3 67 13 36 -1 133 -27 183 -7 14 -16 40 -20
57 -6 28 -2 37 23 63 39 39 67 32 58 -14 -14 -66 -13 -68 72 -141 45 -40 103
-82 127 -94 25 -12 47 -26 50 -32 8 -12 52 -12 60 1 3 6 3 15 -1 21 -4 7 -8
28 -10 47 -2 19 -12 44 -22 56 -26 29 -42 61 -42 85 0 12 -4 21 -8 21 -9 0
-62 102 -62 118 0 6 -7 12 -15 16 -8 3 -15 12 -15 21 0 8 -4 15 -10 15 -5 0
-10 7 -10 15 0 8 -9 23 -20 32 -11 10 -20 23 -20 31 0 7 -4 10 -10 7 -5 -3
-10 0 -10 8 0 8 -7 20 -15 27 -8 7 -22 39 -31 71 -9 32 -21 56 -25 53 -5 -3
-12 8 -15 25 -6 27 -84 121 -101 121 -5 0 -23 30 -42 66 -21 41 -43 69 -58 75
-12 4 -23 15 -23 24 0 8 -11 22 -25 31 -14 9 -25 25 -25 36 0 11 -22 46 -49
77 -26 31 -69 88 -94 126 -25 39 -60 90 -77 114 -29 41 -109 207 -125 261 -4
14 -16 45 -27 69 -41 90 -68 314 -68 551 0 177 16 449 30 530 6 30 19 141 30
245 11 105 22 211 26 236 l6 45 -114 105 c-62 57 -135 131 -162 164 -83 103
-187 346 -240 560 -13 55 -35 123 -47 150 -22 46 -23 62 -21 180 1 72 4 150 6
175 4 60 -11 113 -29 106 -8 -3 -18 1 -22 9 -5 7 -15 13 -23 13 -50 -3 -82 4
-97 22 -10 11 -25 20 -34 20 -27 0 -79 30 -79 46 0 8 -7 28 -15 44 -9 16 -17
42 -19 57 -2 16 -9 53 -14 83 -12 62 -10 145 3 175 5 11 17 26 27 33 10 7 24
28 32 46 12 29 20 34 72 45 33 7 80 13 106 14 27 1 48 7 48 12 0 6 4 3 10 -5
5 -8 13 -11 17 -6 8 8 8 48 2 286 -4 130 -3 139 28 233 18 54 35 102 38 107 3
5 28 1 58 -10 134 -50 371 -69 637 -51 271 19 514 67 609 122 31 18 33 18 26
2 -25 -62 -10 -74 20 -15 11 20 29 49 41 64 27 34 99 219 108 279 18 120 165
238 262 210 98 -28 129 -65 184 -222 57 -163 73 -199 137 -294 74 -111 74
-111 111 -117 36 -5 58 12 48 37 -4 10 1 15 17 16 21 0 21 1 2 9 -22 10 -3 9
110 -9 163 -26 294 -33 551 -28 288 5 386 16 539 64 69 22 87 32 128 77 27 28
55 62 62 76 19 36 72 207 80 255 8 53 44 116 76 134 23 13 28 12 75 -21 27
-19 101 -65 164 -103 144 -86 219 -137 254 -171 25 -25 25 -28 10 -45 -27 -29
-1 -117 58 -201 20 -30 104 -222 120 -275 14 -49 38 -58 81 -28 31 20 40 22
65 13 41 -16 100 7 129 51 19 28 21 41 16 99 -5 57 -12 76 -47 127 -23 33 -50
80 -61 105 -11 25 -28 53 -38 63 -10 10 -25 34 -33 52 -7 18 -28 44 -46 56
-18 13 -42 35 -52 49 -42 54 -196 188 -269 234 l-28 17 7 -26 c3 -14 3 -33 -1
-42 -6 -16 -8 -14 -21 9 -10 19 -24 28 -53 33 -27 4 -41 12 -44 26 -3 12 -11
17 -20 13 -8 -3 -18 0 -22 6 -4 6 -15 8 -26 5 -11 -4 -19 -2 -19 4 0 6 -9 11
-20 11 -11 0 -20 5 -20 11 0 5 -5 7 -11 3 -16 -9 -2 48 14 59 8 6 6 7 -5 3
-10 -3 -19 2 -22 12 -3 9 -4 2 -2 -16 1 -18 -1 -35 -5 -38 -14 -8 -22 44 -16
94 6 40 2 53 -21 87 -15 22 -37 42 -47 44 -11 2 -25 11 -32 21 -17 24 -83 45
-223 70 -172 31 -260 60 -260 86 0 8 -12 16 -27 19 -16 4 -43 13 -61 21 -18 8
-41 14 -50 14 -10 0 -28 7 -40 16 -12 8 -27 12 -34 8 -7 -4 -8 -3 -4 4 9 14
-18 25 -99 42 -135 27 -188 41 -208 55 -12 8 -33 15 -48 15 -14 0 -29 3 -33 7
-11 11 -106 34 -135 34 -32 -1 -51 -18 -48 -44 2 -18 -4 -22 -33 -25 -19 -1
-42 -6 -50 -9 -8 -3 -23 -5 -33 -4 -10 2 -25 -6 -33 -16 -7 -10 -14 -13 -14
-8 0 6 -3 5 -8 -1 -4 -6 -26 -14 -49 -18 -45 -7 -51 0 -33 35 7 12 7 19 1 19
-6 0 -17 -21 -25 -47 -11 -39 -17 -48 -35 -46 -15 2 -21 -3 -21 -18 0 -12 -4
-17 -11 -13 -6 3 -9 17 -7 29 3 13 -3 33 -13 46 -18 24 -18 23 -13 -41 l5 -64
-27 27 c-15 15 -31 27 -36 27 -19 0 -37 -28 -36 -58 1 -24 -7 -38 -31 -59 -65
-55 -117 -111 -113 -121 1 -5 -19 -18 -45 -28 -36 -14 -75 -19 -158 -19 -60 0
-119 4 -130 9 -11 5 -26 10 -33 12 -21 4 -26 12 -27 42 0 22 -5 28 -28 30 -22
3 -27 7 -22 22 6 20 -27 46 -46 35 -5 -4 -16 -2 -22 4 -7 5 -46 11 -87 13 -75
3 -75 3 -73 31 1 15 -2 27 -8 27 -5 0 -9 7 -9 15 0 9 -9 15 -25 15 -17 0 -25
6 -25 18 0 9 -7 26 -15 36 -20 27 -39 7 -38 -39 1 -19 -3 -32 -8 -29 -5 3 -9
12 -9 19 0 21 -32 34 -100 42 -40 4 -60 10 -60 19 0 10 -21 13 -85 13 -47 -1
-85 -5 -85 -10 0 -5 -16 -9 -35 -9 -20 0 -52 -7 -72 -15 -22 -10 -52 -13 -79
-10 -35 4 -42 2 -40 -13 1 -13 -7 -17 -34 -17 -37 -1 -43 -15 -25 -57 6 -15 2
-18 -28 -18 -19 0 -40 -7 -47 -15 -7 -9 -20 -13 -27 -10 -9 3 -13 0 -11 -7 3
-7 20 -16 39 -19 23 -4 8 -7 -51 -9 -47 -2 -92 -3 -102 -4 -9 -1 -27 -11 -40
-23 -13 -12 -53 -29 -93 -38 -73 -17 -222 -45 -242 -45 -6 0 -19 20 -28 44
-14 36 -16 62 -10 133 4 48 6 133 5 188 -1 93 1 104 29 160 17 33 31 70 31 82
0 37 30 114 67 175 43 69 104 228 110 286 6 50 4 50 -82 17z m-1730 -508 c55
-10 93 -29 104 -53 6 -14 15 -22 21 -19 12 8 30 -58 17 -66 -5 -4 -6 -16 -3
-27 8 -24 -9 -63 -26 -59 -6 1 -16 -12 -21 -30 -5 -18 -24 -42 -42 -54 -17
-12 -37 -35 -42 -50 -8 -21 -21 -30 -54 -39 -24 -7 -55 -18 -69 -25 -52 -26
-139 -25 -159 2 -3 5 -15 13 -26 19 -26 15 -33 95 -11 130 9 13 16 32 16 44 0
11 4 20 8 20 5 0 14 12 20 26 7 14 15 23 20 21 20 -12 53 17 77 68 14 31 38
68 52 81 28 26 33 26 118 11z m3854 -384 c2 -2 2 -6 -1 -9 -4 -3 -16 0 -28 6
-12 6 -19 14 -16 17 3 4 0 13 -6 22 -7 9 1 5 17 -9 17 -14 32 -26 34 -27z
m1016 -23 c17 -7 15 -9 -12 -9 -17 -1 -35 4 -38 9 -7 12 22 12 50 0z m50 -105
c144 -19 258 -48 294 -76 34 -26 91 -117 91 -144 0 -18 -2 -18 -15 5 -8 14
-24 43 -35 66 -37 76 -125 113 -311 130 -63 6 -69 5 -69 -12 0 -18 18 -29 73
-48 14 -5 16 -9 7 -26 -6 -11 -20 -20 -30 -20 -13 0 -20 -7 -20 -20 0 -11 -7
-20 -15 -20 -8 0 -15 -7 -15 -16 0 -12 -7 -14 -27 -10 -16 3 -48 8 -72 12 -30
4 -45 12 -48 25 -5 16 -7 16 -31 -7 -34 -30 -46 -30 -80 1 -30 28 -59 32 -88
10 -25 -19 -58 -19 -74 0 -11 13 -16 12 -42 -10 -36 -31 -43 -31 -62 -3 -11
15 -12 25 -5 34 6 7 7 19 3 26 -6 10 -5 10 8 0 14 -11 16 -10 14 5 -2 10 5 34
15 53 26 48 24 53 -16 47 -19 -3 -35 -2 -35 3 0 23 395 20 585 -5z m-865 -42
c-25 -8 -49 -15 -55 -16 -5 -2 -15 -5 -20 -9 -6 -3 -28 -9 -50 -13 -35 -5 -37
-4 -20 6 27 17 134 48 165 47 18 0 12 -4 -20 -15z m-1350 -22 c23 -10 21 -11
-16 -6 -50 6 -58 0 -37 -32 13 -19 22 -23 43 -18 18 4 31 1 40 -11 12 -14 11
-21 -5 -52 -20 -38 -57 -54 -77 -34 -7 7 -21 6 -42 -3 -17 -7 -58 -21 -91 -30
-33 -10 -92 -28 -132 -41 -40 -14 -92 -27 -117 -30 -55 -8 -153 -83 -148 -114
2 -11 -2 -20 -7 -20 -6 0 -11 5 -11 11 0 6 -6 9 -14 6 -7 -3 -18 -1 -24 5 -6
6 -18 8 -26 5 -18 -7 -21 -42 -5 -53 8 -4 7 -9 -2 -14 -9 -6 -10 -12 -2 -22
18 -23 22 -58 7 -66 -15 -8 -8 -52 9 -52 5 0 25 16 44 35 45 46 90 56 270 61
140 4 155 2 187 -17 39 -23 49 -59 18 -59 -25 0 -58 -35 -42 -45 8 -5 8 -11
-1 -21 -13 -16 -16 -16 81 -19 76 -3 188 19 245 48 43 22 84 63 85 86 0 8 11
29 25 47 19 25 34 34 63 36 35 3 37 5 36 36 -1 22 3 32 12 32 8 0 19 12 25 28
7 15 16 36 21 47 10 24 -4 101 -28 146 -17 35 -12 37 16 7 33 -35 39 -79 30
-201 -13 -169 -58 -290 -145 -392 -53 -62 -120 -100 -205 -115 -36 -6 -108
-20 -160 -30 -246 -49 -659 -51 -792 -4 -128 45 -183 165 -189 409 -3 165 33
278 113 354 32 31 50 38 125 52 49 9 124 24 168 33 44 9 118 20 165 25 118 13
458 8 490 -8z m480 9 c8 -5 11 -10 5 -10 -5 0 -17 5 -25 10 -8 5 -10 10 -5 10
6 0 17 -5 25 -10z m834 -53 c-3 -8 -11 -14 -19 -14 -8 0 -15 6 -15 14 0 7 9
13 20 13 12 0 17 -5 14 -13z m-979 -28 c5 -5 -5 -4 -23 2 -17 6 -32 13 -32 16
0 7 43 -8 55 -18z m2272 -171 c-3 -8 -6 -5 -6 6 -1 11 2 17 5 13 3 -3 4 -12 1
-19z m-7 -262 c-14 -133 -42 -194 -104 -231 -239 -140 -912 -153 -1223 -24
-82 35 -93 45 -98 91 -1 19 -14 57 -29 86 -27 54 -33 82 -16 82 6 0 10 9 10
20 0 16 16 64 27 79 1 2 8 -1 15 -7 7 -6 37 -20 65 -31 29 -11 62 -29 73 -38
11 -10 29 -26 40 -35 25 -22 36 -23 44 -3 9 24 24 17 28 -12 2 -23 9 -29 32
-31 16 -2 39 -10 50 -17 12 -8 48 -15 81 -16 33 -1 75 -8 94 -15 18 -8 50 -14
70 -14 20 0 51 -4 70 -10 31 -9 325 3 358 15 17 6 5 35 -13 35 -8 0 -17 6 -20
14 -8 22 -94 28 -214 16 -137 -13 -150 -13 -170 5 -9 8 -19 15 -23 15 -3 0
-18 12 -32 26 -21 21 -24 29 -13 35 7 5 22 7 32 5 11 -3 32 3 48 12 23 13 32
14 48 4 16 -10 23 -8 46 13 30 28 40 31 46 13 3 -9 56 -13 201 -13 192 -1 198
-2 213 -23 15 -22 44 -30 44 -12 0 18 29 10 56 -15 39 -36 68 -41 103 -16 16
12 34 21 40 21 14 0 14 16 1 41 -7 13 -7 19 0 19 5 0 10 7 10 16 0 14 -3 14
-15 4 -14 -11 -19 -7 -16 13 0 4 -4 6 -10 5 -6 -2 -13 2 -16 8 -2 6 8 14 22
16 14 3 25 1 25 -6 1 -29 20 24 22 59 1 22 4 9 6 -30 2 -38 -2 -115 -8 -169z
m-1470 29 c0 -8 -4 -15 -10 -15 -5 0 -10 7 -10 15 0 8 5 15 10 15 6 0 10 -7
10 -15z m-3356 -554 c16 -13 18 -53 2 -48 -5 2 -18 -5 -28 -15 -10 -10 -32
-21 -48 -25 -16 -3 -35 -12 -41 -19 -9 -11 -7 -14 12 -15 l24 0 -24 -10 c-33
-13 -45 1 -30 35 14 31 5 45 -20 29 -11 -7 -23 -8 -32 -2 -23 15 17 39 52 32
33 -6 36 2 12 30 -17 19 -17 20 10 15 15 -3 27 -2 27 1 0 12 68 5 84 -8z m-4
-100 c0 -9 -24 -21 -42 -21 -6 0 -6 6 2 15 14 16 40 20 40 6z m620 -2900 c0
-5 16 -12 35 -15 19 -4 35 -10 35 -14 0 -5 16 -26 36 -48 20 -21 43 -53 50
-71 22 -51 17 -158 -11 -254 -13 -46 -25 -92 -25 -102 0 -11 -9 -21 -21 -24
-11 -3 -25 -16 -29 -29 -5 -13 -27 -32 -50 -44 -22 -11 -40 -24 -40 -29 0 -22
-69 -35 -192 -36 -95 -1 -131 2 -140 12 -6 7 -15 13 -20 13 -6 0 -28 18 -49
40 -22 22 -43 40 -48 40 -10 0 -21 48 -21 91 0 15 -4 30 -9 33 -15 9 -5 88 18
152 16 44 38 76 77 115 78 78 99 96 112 91 7 -2 12 6 12 17 0 17 6 21 30 21
30 0 40 3 95 33 32 18 155 24 155 8z m868 -811 c17 -34 22 -61 22 -117 0 -57
6 -88 30 -147 16 -42 34 -106 40 -143 8 -50 25 -91 65 -162 29 -53 63 -125 75
-161 12 -35 46 -105 75 -155 30 -49 70 -129 89 -177 20 -49 60 -123 89 -165
68 -97 127 -209 127 -239 0 -13 8 -29 19 -36 10 -7 28 -33 41 -58 12 -25 40
-69 61 -99 22 -30 39 -61 39 -70 0 -9 7 -25 15 -35 8 -11 15 -29 15 -40 0 -12
7 -40 15 -63 16 -45 18 -200 3 -209 -31 -20 -76 62 -128 231 -12 39 -23 75
-26 82 -3 6 4 20 16 30 18 17 19 24 9 54 -7 19 -16 39 -20 45 -5 6 -22 37 -38
69 l-30 59 -38 -40 c-21 -21 -53 -61 -71 -87 -18 -26 -37 -45 -42 -42 -13 8
-35 60 -43 103 -4 18 -15 45 -26 60 -11 15 -31 66 -45 114 -26 91 -72 192
-112 244 -29 39 -61 135 -73 217 -9 62 -34 124 -72 177 -19 26 -52 148 -64
235 -4 27 -17 77 -30 110 -32 86 -37 130 -25 213 8 59 7 79 -5 109 -15 36 -21
124 -8 137 13 13 28 0 51 -44z m812 -1662 c0 -16 -19 2 -36 34 -8 16 -13 37
-9 46 5 12 11 5 26 -27 10 -24 19 -47 19 -53z"/>
<path d="M2942 6878 c2 -15 11 -24 26 -26 20 -3 23 0 20 20 -2 15 -11 24 -26
26 -20 3 -23 0 -20 -20z"/>
<path d="M2690 6804 c-19 -8 -36 -17 -39 -20 -13 -13 -19 -149 -10 -237 13
-128 40 -214 80 -255 62 -64 85 -28 100 155 12 149 12 258 -1 293 -4 14 -11
37 -14 53 -6 24 -11 27 -44 27 -20 -1 -53 -8 -72 -16z"/>
<path d="M2925 6750 c-3 -5 -1 -10 4 -10 6 0 11 5 11 10 0 6 -2 10 -4 10 -3 0
-8 -4 -11 -10z"/>
<path d="M3370 6435 c0 -12 7 -15 25 -13 14 2 26 8 26 13 0 6 -12 11 -26 13
-18 2 -25 -1 -25 -13z"/>
<path d="M5870 6519 c0 -5 5 -7 10 -4 6 3 10 8 10 11 0 2 -4 4 -10 4 -5 0 -10
-5 -10 -11z"/>
<path d="M1373 6001 c-14 -23 -5 -35 14 -20 14 12 18 39 5 39 -4 0 -13 -9 -19
-19z"/>
<path d="M5178 7473 c7 -3 16 -2 19 1 4 3 -2 6 -13 5 -11 0 -14 -3 -6 -6z"/>
<path d="M5077 7463 c-4 -3 -7 -11 -7 -17 0 -6 5 -5 12 2 6 6 9 14 7 17 -3 3
-9 2 -12 -2z"/>
<path d="M2670 7149 c0 -5 5 -7 10 -4 6 3 10 8 10 11 0 2 -4 4 -10 4 -5 0 -10
-5 -10 -11z"/>
<path d="M6660 6945 c0 -15 4 -24 10 -20 6 3 10 12 10 20 0 8 -4 17 -10 20 -6
4 -10 -5 -10 -20z"/>
<path d="M7320 6879 c0 -5 -13 -15 -30 -20 -29 -11 -38 -28 -22 -43 4 -4 7
-11 8 -14 0 -4 3 -25 7 -47 4 -22 9 -54 11 -72 7 -56 96 -128 96 -78 0 8 3 15
8 15 4 0 15 14 25 31 17 30 17 33 -1 63 -19 33 -88 76 -109 68 -7 -2 -13 1
-13 7 0 6 7 11 15 11 8 0 15 6 15 14 0 7 3 28 6 45 4 20 3 31 -5 31 -6 0 -11
-5 -11 -11z"/>
<path d="M7114 6723 c-11 -18 -9 -22 74 -110 27 -29 47 -55 44 -58 -3 -3 1 -5
9 -5 8 0 20 -13 27 -30 15 -33 33 -38 52 -15 14 17 5 35 -19 35 -10 0 -21 9
-24 20 -3 11 -12 20 -21 20 -14 0 -22 14 -13 23 5 6 -105 137 -116 137 -1 0
-7 -7 -13 -17z"/>
<path d="M4922 6041 c4 -13 18 -16 19 -4 0 4 -5 9 -11 12 -7 2 -11 -2 -8 -8z"/>
<path d="M4986 5995 c4 -8 8 -15 10 -15 2 0 4 7 4 15 0 8 -4 15 -10 15 -5 0
-7 -7 -4 -15z"/>
<path d="M5008 5943 c6 -2 18 -2 25 0 6 3 1 5 -13 5 -14 0 -19 -2 -12 -5z"/>
<path d="M7590 5830 c-21 -29 -21 -57 0 -85 4 -5 10 -23 14 -40 16 -73 31
-115 40 -112 25 8 32 90 17 179 -17 99 -33 112 -71 58z"/>
<path d="M4343 5820 c-5 -19 -11 -20 -44 -15 -33 6 -39 4 -41 -12 0 -10 -2
-23 -2 -30 -1 -6 -10 -21 -20 -32 -11 -12 -14 -21 -8 -21 15 0 52 -41 52 -58
0 -8 -9 -16 -19 -19 -29 -7 -39 -62 -16 -80 13 -8 22 -9 30 -3 9 8 14 2 18
-20 4 -16 4 -37 1 -45 -6 -15 11 -22 18 -7 7 17 64 38 88 32 14 -4 31 -2 38 4
10 7 16 6 23 -7 8 -13 21 -16 69 -13 59 4 60 4 54 -19 -5 -20 -3 -23 15 -18
15 4 21 1 21 -11 0 -16 10 -20 45 -16 27 3 27 4 14 34 -11 23 -9 29 17 55 26
27 31 28 46 15 13 -12 23 -13 50 -5 74 22 120 42 140 61 12 11 27 20 32 20 6
0 26 16 43 35 18 19 37 35 43 35 5 0 8 15 6 33 -2 17 1 37 6 44 5 7 7 17 4 22
-9 13 -36 2 -36 -14 0 -7 -7 -18 -15 -25 -8 -7 -13 -16 -10 -20 3 -5 -5 -12
-17 -16 -12 -3 -28 -13 -36 -20 -16 -16 -32 -18 -32 -4 0 12 -69 3 -86 -11
-10 -8 -18 -3 -33 22 -11 18 -39 45 -62 61 -45 30 -79 34 -194 18 -33 -4 -64
-3 -69 1 -13 12 -39 12 -32 0 5 -8 -15 -21 -31 -21 -9 0 8 55 20 62 17 10 5
17 -42 23 -37 5 -43 3 -48 -15z m357 -270 c0 -15 -28 -32 -35 -20 -10 16 -25
12 -19 -5 7 -16 -13 -20 -34 -7 -10 7 -8 12 7 26 11 10 17 25 14 37 -5 19 -5
19 31 -2 20 -11 36 -24 36 -29z m-160 -10 c0 -5 -4 -10 -10 -10 -5 0 -10 5
-10 10 0 6 5 10 10 10 6 0 10 -4 10 -10z"/>
<path d="M4108 5823 c6 -2 18 -2 25 0 6 3 1 5 -13 5 -14 0 -19 -2 -12 -5z"/>
<path d="M4103 5793 c9 -2 23 -2 30 0 6 3 -1 5 -18 5 -16 0 -22 -2 -12 -5z"/>
<path d="M3927 5776 c-19 -19 -23 -46 -7 -46 6 0 10 -6 10 -14 0 -7 9 -25 20
-39 22 -27 26 -57 9 -57 -6 0 -3 -7 5 -16 9 -8 16 -20 16 -25 0 -13 44 -11 71
4 49 26 135 85 148 101 12 14 11 20 -6 39 -11 12 -22 28 -25 36 -2 8 -15 15
-29 16 -13 2 -62 6 -109 10 -74 7 -88 5 -103 -9z"/>
<path d="M8398 5556 c-21 -5 -38 -13 -38 -18 0 -4 -13 -8 -29 -8 -17 0 -33 -5
-36 -10 -16 -26 -86 -50 -152 -51 -95 -1 -231 16 -275 35 -21 9 -38 15 -38 13
0 -1 -9 -27 -21 -57 -24 -66 -36 -166 -49 -405 -14 -279 -54 -391 -188 -522
-40 -40 -78 -73 -83 -73 -5 0 -28 -9 -52 -19 -95 -43 -184 -80 -209 -86 -39
-10 -94 12 -134 51 l-34 35 -20 -33 c-31 -51 -81 -186 -91 -247 -52 -326 -90
-904 -89 -1346 1 -189 -16 -475 -30 -525 -13 -45 -13 -160 0 -160 6 0 10 -7
10 -15 0 -8 5 -15 10 -15 6 0 10 6 10 14 0 11 9 13 35 9 28 -4 39 -2 50 13 24
33 29 100 11 163 -22 77 -20 93 9 125 28 31 33 80 14 166 -26 122 65 207 124
117 27 -41 67 -148 87 -231 12 -50 28 -89 43 -105 25 -27 54 -85 82 -163 10
-25 30 -58 45 -73 22 -21 27 -33 23 -58 -3 -17 -11 -36 -18 -42 -7 -5 -15 -22
-19 -38 -5 -23 -1 -32 30 -60 21 -17 42 -32 47 -32 6 0 16 18 23 39 19 54 32
66 70 66 46 0 234 -99 404 -213 74 -50 137 -94 140 -97 24 -29 161 -103 215
-116 17 -4 39 -13 50 -20 11 -6 35 -15 54 -19 56 -12 213 -86 267 -127 28 -21
56 -38 62 -38 7 0 12 -4 12 -10 0 -5 6 -7 13 -4 7 2 19 -6 26 -18 7 -13 26
-30 43 -38 17 -8 38 -28 47 -45 19 -35 51 -64 69 -65 7 0 21 7 30 16 20 20
106 13 199 -16 167 -52 359 -191 408 -297 16 -32 52 -81 86 -115 l59 -59 24
27 23 27 46 -22 c26 -13 82 -54 124 -93 l78 -71 3 2189 2 2189 -22 18 c-13 9
-35 20 -51 23 -36 8 -87 67 -82 94 2 11 1 18 -3 16 -4 -3 -14 21 -21 52 -18
80 -43 112 -87 112 -19 0 -34 4 -34 10 0 10 -49 34 -90 45 -28 7 -168 76 -219
107 -28 18 -48 21 -135 20 -56 0 -129 5 -164 14 -35 7 -85 14 -112 14 -28 0
-69 4 -92 9 -196 44 -419 65 -490 47z"/>
<path d="M7246 5448 c-32 -46 -6 -151 47 -189 27 -20 67 -9 67 18 0 44 -22
150 -36 171 -19 29 -58 29 -78 0z"/>
<path d="M5400 5336 c0 -9 7 -16 16 -16 17 0 14 22 -4 28 -7 2 -12 -3 -12 -12z"/>
<path d="M7386 5203 c-9 -10 -7 -52 4 -74 12 -21 50 -25 68 -7 16 16 15 63 0
75 -15 11 -62 15 -72 6z"/>
<path d="M4427 5034 c-3 -3 -25 -7 -49 -9 -73 -6 -93 -11 -123 -31 -20 -13
-30 -15 -33 -6 -5 16 -59 16 -65 0 -4 -10 -6 -10 -6 0 -1 17 -119 16 -195 -4
-33 -8 -83 -26 -111 -39 -65 -30 -133 -48 -154 -40 -9 4 -45 11 -80 15 -49 6
-67 5 -75 -4 -11 -14 -106 -52 -141 -58 -11 -2 -20 -10 -20 -18 0 -12 22 -16
110 -22 61 -4 126 -3 145 2 19 5 60 9 91 9 44 -1 67 5 101 25 80 47 196 59
496 52 164 -4 293 -12 345 -22 45 -8 120 -21 167 -29 47 -7 121 -23 165 -34
44 -11 89 -21 100 -21 11 0 33 -7 49 -15 24 -13 61 -15 200 -11 190 5 233 14
243 54 7 30 -25 62 -63 62 -12 0 -26 5 -30 11 -4 8 -26 9 -63 5 -102 -12 -146
-17 -161 -18 -36 -3 -144 13 -211 30 -41 11 -96 22 -123 26 -27 3 -54 10 -60
15 -6 4 -51 16 -101 25 -49 9 -102 21 -116 25 -15 5 -44 7 -65 6 -22 -1 -46 1
-54 5 -20 10 -106 21 -113 14z"/>
<path d="M4320 3140 c0 -5 6 -10 14 -10 8 0 18 5 21 10 3 6 -3 10 -14 10 -12
0 -21 -4 -21 -10z"/>
<path d="M4795 3060 c3 -5 8 -10 11 -10 2 0 4 5 4 10 0 6 -5 10 -11 10 -5 0
-7 -4 -4 -10z"/>
<path d="M4626 3041 c-26 -5 -27 -7 -13 -19 14 -12 19 -11 33 2 20 21 17 24
-20 17z"/>
<path d="M4417 3006 c-35 -29 -28 -59 12 -50 47 10 53 13 44 26 -4 7 -6 21 -5
31 4 23 -17 21 -51 -7z"/>
<path d="M4337 2970 c3 -11 9 -20 14 -20 11 0 11 3 3 24 -9 23 -23 20 -17 -4z"/>
<path d="M6844 2082 c5 -8 -1 -11 -16 -9 -18 1 -28 -7 -46 -43 -24 -47 -25
-82 -2 -161 16 -58 80 -74 109 -27 24 39 7 208 -21 208 -4 0 -8 6 -8 14 0 8
-5 18 -12 22 -7 4 -8 3 -4 -4z"/>
<path d="M2345 1823 c-7 -128 -6 -142 14 -201 17 -46 25 -98 31 -200 4 -84 14
-152 23 -177 10 -26 16 -72 17 -131 0 -88 1 -92 40 -155 53 -84 76 -135 85
-189 10 -60 41 -152 76 -220 15 -31 42 -98 59 -150 39 -117 43 -123 95 -185
31 -36 65 -62 126 -93 46 -23 94 -42 107 -42 13 0 38 -17 61 -40 l39 -40 98 0
99 1 -45 40 c-68 60 -110 79 -178 79 -69 0 -104 21 -187 112 -138 151 -191
239 -230 378 -46 168 -57 201 -81 243 -23 43 -102 272 -125 364 -10 43 -10 73
0 160 12 102 12 112 -8 178 -12 39 -25 118 -30 177 -7 80 -16 121 -36 167 -15
34 -31 61 -35 61 -5 0 -11 -62 -15 -137z"/>
<path d="M7107 1954 c-4 -4 -7 -28 -6 -53 l0 -46 16 32 c12 23 14 39 7 53 -5
12 -13 18 -17 14z"/>
<path d="M1860 1813 c-25 -14 -54 -34 -65 -44 -11 -10 -89 -40 -172 -68 -153
-50 -213 -80 -213 -106 0 -41 103 -25 208 31 36 18 76 34 89 34 14 0 39 6 56
14 18 7 46 19 63 25 16 7 42 23 56 36 15 14 41 33 59 43 42 23 46 36 14 50
-36 17 -44 15 -95 -15z"/>
<path d="M6544 1733 c-43 -49 -126 -136 -184 -195 -86 -89 -114 -111 -155
-124 -27 -10 -69 -30 -92 -45 -23 -16 -49 -29 -58 -29 -25 0 -94 -43 -101 -62
-3 -9 -15 -20 -27 -24 -12 -3 -29 -12 -37 -19 -8 -7 -33 -19 -55 -26 -21 -8
-50 -24 -63 -36 -14 -13 -30 -23 -37 -23 -7 0 -19 -8 -29 -19 -11 -12 -25 -16
-41 -13 -35 6 -100 -39 -124 -87 -11 -21 -17 -42 -13 -45 10 -10 -39 -46 -63
-46 -23 0 -45 -18 -45 -35 0 -7 -18 -31 -40 -55 -22 -23 -42 -51 -45 -61 -4
-13 -16 -19 -36 -19 -22 0 -32 -6 -39 -25 -5 -14 -14 -25 -19 -25 -5 0 -11
-10 -15 -23 -3 -12 -14 -31 -24 -42 -10 -11 -21 -28 -25 -38 -3 -9 -15 -17
-26 -17 -33 0 -31 -14 4 -55 29 -33 36 -37 44 -25 9 13 12 13 27 -2 11 -11 14
-23 9 -35 -5 -10 -10 -36 -12 -57 -1 -22 -7 -42 -11 -45 -18 -12 -21 -57 -7
-85 8 -16 15 -39 15 -51 0 -13 7 -25 15 -29 20 -7 107 4 122 16 16 12 43 66
43 85 0 7 3 13 6 13 17 0 91 -77 113 -118 20 -36 38 -53 75 -71 47 -24 106
-95 106 -128 0 -10 21 -13 80 -13 l81 0 -7 38 c-10 57 -29 87 -88 138 -54 46
-55 47 -50 93 8 68 9 69 59 76 44 7 46 6 85 -37 22 -25 53 -51 70 -58 16 -7
39 -28 51 -47 19 -31 21 -43 14 -119 l-7 -84 66 0 c73 0 84 9 67 51 -5 14 -7
73 -4 131 5 93 8 107 25 111 44 12 76 -73 58 -156 -6 -29 -20 -67 -30 -85 -11
-18 -20 -37 -20 -43 0 -5 57 -9 134 -9 l133 0 12 58 c10 51 9 58 -6 70 -15 11
-18 28 -18 101 0 54 5 94 12 102 7 8 33 55 58 104 62 119 130 211 234 318 111
114 135 159 136 254 0 123 -16 114 -98 -56 -52 -108 -70 -135 -128 -192 -55
-55 -70 -76 -83 -122 -19 -67 -53 -111 -78 -102 -36 14 -51 185 -20 226 46 60
73 124 100 237 23 93 36 127 54 142 12 11 26 19 30 20 13 0 76 144 84 190 4
25 8 47 9 50 7 35 33 80 50 88 28 13 65 124 65 195 0 40 -5 59 -20 75 -27 28
-31 28 -63 -6 -34 -36 -47 -79 -47 -160 0 -65 -22 -124 -55 -152 -23 -19 -59
-93 -81 -165 -22 -72 -55 -129 -88 -151 -14 -8 -39 -40 -56 -70 -17 -30 -38
-58 -46 -61 -9 -3 -28 7 -47 25 -18 17 -44 35 -59 41 -21 8 -28 17 -28 37 0
27 11 43 117 161 36 39 76 84 89 100 14 15 38 55 53 88 16 33 53 110 81 170
50 105 76 205 53 205 -5 0 -45 -39 -89 -87z m-344 -728 c-31 -33 -170 -80
-170 -57 0 20 174 100 189 86 3 -2 -6 -15 -19 -29z m-454 -240 c-9 -14 -39
-51 -67 -81 -60 -66 -67 -93 -16 -60 12 8 45 24 74 35 57 22 76 14 68 -28 -5
-25 -21 -41 -127 -116 -106 -76 -141 -73 -101 9 15 33 15 37 0 54 -9 10 -17
27 -17 38 0 36 58 110 139 177 30 25 36 27 49 13 13 -13 13 -18 -2 -41z m262
-87 c-3 -7 -13 -15 -24 -17 -16 -3 -17 -1 -5 13 16 19 34 21 29 4z"/>
<path d="M7432 1749 c-5 -13 -7 -133 -5 -267 4 -228 5 -247 28 -311 28 -76 30
-106 14 -180 -9 -45 -8 -53 17 -103 31 -60 31 -39 17 -423 -5 -154 -12 -237
-21 -252 -7 -13 -15 -65 -19 -118 l-6 -95 65 0 66 0 4 67 c3 42 -2 111 -13
178 -18 103 -18 115 -3 189 16 77 16 129 -2 301 -4 43 0 84 14 145 21 87 19
164 -6 245 -5 17 -12 71 -16 120 -8 110 -21 180 -48 266 -18 58 -19 69 -7 94
31 65 123 94 189 60 45 -23 64 -69 63 -150 0 -38 -3 -196 -6 -350 -4 -256 -3
-287 15 -365 16 -69 19 -101 13 -170 -10 -118 -7 -162 17 -248 16 -60 19 -91
14 -156 -4 -45 -9 -114 -12 -153 l-6 -73 91 0 91 0 0 30 c0 17 -9 48 -20 69
-30 60 -43 189 -25 259 17 66 9 134 -25 226 -17 49 -20 73 -16 130 18 221 18
255 2 303 -26 74 -30 160 -12 212 25 67 21 142 -10 203 -23 45 -26 60 -20 110
6 65 4 69 -92 152 -52 45 -54 46 -125 46 -40 0 -90 5 -112 11 -87 23 -84 23
-93 -2z"/>
<path d="M7229 1604 c-18 -49 -31 -124 -24 -142 6 -15 9 -14 29 9 33 39 46
147 19 156 -7 3 -18 -8 -24 -23z"/>
<path d="M2005 1596 c-22 -14 -57 -47 -77 -74 -33 -45 -44 -52 -120 -77 -143
-48 -134 -40 -96 -74 l33 -30 -19 -48 c-19 -47 -21 -71 -17 -250 1 -56 -3 -85
-21 -125 -16 -37 -22 -70 -21 -113 1 -33 2 -98 3 -145 2 -66 -2 -97 -18 -137
-23 -57 -31 -172 -15 -213 15 -37 14 -143 -3 -206 -8 -30 -14 -66 -14 -79 0
-25 0 -25 106 -25 l106 0 -6 52 c-19 165 -18 206 3 271 14 43 21 88 21 133 -2
179 -1 207 14 251 16 50 19 98 16 243 -2 72 2 95 24 147 30 71 33 126 11 209
-8 31 -12 67 -10 80 3 13 7 34 10 47 6 30 44 50 138 73 75 17 80 18 109 1 39
-22 48 -15 48 38 0 73 -3 75 -89 75 -63 0 -83 -4 -116 -24z"/>
<path d="M7010 1587 c0 -1 -4 -18 -10 -37 -9 -32 -8 -33 5 -16 14 19 21 56 10
56 -3 0 -5 -1 -5 -3z"/>
<path d="M2177 1323 c-27 -75 -27 -82 -16 -154 13 -85 5 -201 -17 -255 -18
-42 -20 -160 -4 -208 13 -40 0 -137 -24 -185 -23 -43 -29 -137 -13 -196 11
-40 11 -62 1 -115 -7 -36 -17 -78 -23 -93 -6 -16 -11 -48 -11 -73 l0 -44 116
0 117 0 -8 78 c-11 114 -9 256 6 346 10 61 10 88 1 122 -17 62 -15 158 4 202
8 20 20 62 25 92 7 46 6 61 -11 95 -10 22 -22 58 -25 80 -4 22 -11 54 -15 70
-5 17 -14 72 -19 123 -6 57 -19 112 -33 143 l-23 51 -28 -79z"/>
<path d="M7142 1369 c-24 -25 -32 -62 -32 -146 0 -58 2 -64 16 -52 28 23 44
68 51 144 6 81 -1 92 -35 54z"/>
<path d="M8144 1334 c-5 -41 -2 -71 11 -114 14 -46 16 -76 11 -136 -4 -43 -12
-86 -18 -97 -13 -25 -4 -116 18 -180 16 -48 16 -67 -2 -305 -6 -75 -4 -87 19
-135 30 -62 41 -154 26 -232 -6 -32 -7 -75 -4 -96 l7 -39 114 0 114 0 0 52 c0
33 -10 75 -27 117 -27 68 -29 96 -23 291 3 61 -2 90 -25 155 -25 72 -27 88
-20 160 13 141 10 173 -28 289 -20 61 -42 145 -49 186 -10 62 -17 80 -44 108
-18 17 -41 32 -52 32 -17 0 -22 -9 -28 -56z"/>
<path d="M6892 1297 c-37 -97 -30 -167 10 -99 19 33 35 152 20 152 -6 0 -19
-24 -30 -53z"/>
<path d="M1351 1314 c-46 -13 -88 -29 -93 -36 -5 -7 -6 -49 -2 -93 10 -129 6
-224 -12 -278 -19 -56 -21 -129 -9 -258 7 -74 5 -96 -15 -161 -19 -65 -21 -88
-15 -159 10 -116 7 -286 -5 -310 -10 -18 -6 -19 96 -19 106 0 106 0 99 22 -4
13 -12 63 -17 112 -9 76 -8 97 7 147 14 46 16 77 11 161 -10 156 -7 206 14
284 17 58 20 97 18 215 -3 130 -1 150 20 202 14 36 24 84 25 125 2 81 2 81
-122 46z"/>
<path d="M763 1234 c-84 -18 -121 -38 -166 -90 -31 -35 -48 -45 -92 -54 -29
-6 -59 -17 -65 -25 -6 -7 -56 -28 -110 -45 -55 -18 -100 -34 -100 -37 0 -3 18
-3 40 0 30 4 46 0 65 -15 29 -23 31 -38 8 -81 -12 -23 -17 -65 -20 -155 -2
-78 -9 -138 -19 -165 -29 -78 -33 -121 -27 -262 5 -116 3 -147 -11 -179 -9
-21 -16 -58 -16 -82 l0 -44 116 0 117 0 -9 63 c-10 80 -8 231 5 271 13 40 16
148 6 256 -6 69 -3 103 14 182 11 54 21 122 21 151 0 99 34 160 96 172 19 3
56 15 82 27 26 11 65 21 86 22 34 1 41 5 49 31 5 17 19 40 30 53 l20 22 -29
-1 c-16 -1 -57 -7 -91 -15z"/>
<path d="M944 1156 c-11 -7 -34 -16 -53 -20 -45 -8 -61 -23 -61 -55 0 -15 -16
-65 -36 -110 -32 -75 -35 -91 -34 -164 3 -158 -1 -271 -12 -290 -7 -14 -8 -79
-3 -201 5 -152 4 -188 -9 -226 -32 -91 -32 -90 100 -90 107 0 116 1 108 18
-16 37 -16 179 0 229 17 53 21 159 11 300 -5 69 -3 104 9 145 31 108 37 177
20 236 -15 50 -14 118 2 203 6 32 -15 44 -42 25z"/>
<path d="M7066 1003 c-4 -5 -22 -39 -40 -78 -43 -92 -72 -125 -147 -165 -89
-47 -143 -107 -200 -222 -26 -54 -71 -132 -100 -173 -87 -126 -96 -191 -22
-150 37 20 56 55 112 204 11 31 35 60 81 100 37 31 82 75 100 99 19 24 66 75
103 115 99 104 119 139 125 214 5 62 3 70 -12 56z"/>
<path d="M8823 983 c3 -10 15 -49 26 -87 l21 -69 -22 -35 c-32 -52 -28 -107
13 -183 25 -44 43 -65 61 -70 38 -10 47 1 54 68 7 67 -4 112 -41 167 l-24 36
24 29 c14 16 25 33 25 39 0 12 -119 122 -133 122 -5 0 -7 -8 -4 -17z"/>
<path d="M7238 872 c-15 -31 -45 -82 -68 -112 -102 -135 -110 -169 -83 -347
14 -94 14 -107 -2 -185 -28 -128 -28 -141 -8 -184 l18 -39 76 -3 c74 -3 76 -2
88 25 22 47 25 171 7 232 -20 69 -20 160 0 236 18 70 26 407 9 424 -7 7 -19
-9 -37 -47z"/>
<path d="M18 893 c-17 -4 -18 -26 -17 -276 0 -191 3 -265 10 -247 13 32 15
150 5 218 -8 48 -6 57 23 112 24 44 34 78 38 130 6 69 6 70 -18 69 -13 -1 -32
-3 -41 -6z"/>
<path d="M4070 765 c-17 -20 3 -45 37 -45 28 0 40 24 23 45 -16 19 -44 19 -60
0z"/>
<path d="M9216 741 c-9 -15 23 -88 67 -156 43 -66 42 -50 21 -260 -5 -50 -2
-69 15 -106 12 -26 31 -56 41 -67 12 -13 16 -23 9 -27 -7 -5 -7 -11 1 -19 6
-8 7 -32 4 -60 l-7 -46 101 0 c118 0 118 0 45 86 -34 41 -48 51 -65 46 -22 -5
-22 -5 1 19 20 21 22 31 18 86 -4 48 -12 73 -36 110 -39 58 -76 172 -61 187
15 15 13 155 -2 170 -28 27 -142 55 -152 37z"/>
<path d="M9660 527 c0 -16 32 -47 48 -47 20 0 13 28 -10 44 -28 20 -38 20 -38
3z"/>
<path d="M6953 499 c-31 -15 -43 -28 -48 -50 -4 -17 -27 -53 -51 -80 -25 -28
-54 -70 -65 -95 -26 -54 -62 -84 -100 -84 -39 0 -55 -30 -63 -118 l-6 -73 132
3 133 3 3 38 c2 21 -4 61 -14 89 -19 59 -14 159 10 205 8 15 42 56 75 90 84
86 82 116 -6 72z"/>
<path d="M8917 476 c-18 -18 -30 -105 -21 -154 3 -20 19 -64 34 -97 15 -33 35
-78 45 -100 10 -21 20 -59 23 -82 l5 -43 44 0 c43 0 45 1 37 23 -4 12 -9 90
-9 172 -1 164 -7 189 -67 251 -22 24 -35 30 -55 26 -18 -3 -24 -1 -19 7 10 15
0 14 -17 -3z"/>
<path d="M9732 389 c-19 -30 -14 -60 15 -103 63 -92 98 -100 98 -20 -1 56 -28
105 -74 128 -25 13 -28 13 -39 -5z"/>
<path d="M4326 387 c-17 -13 -17 -14 -1 -30 22 -23 55 -22 55 1 0 17 -18 42
-30 42 -3 0 -14 -6 -24 -13z"/>
<path d="M4222 308 c-18 -18 -14 -38 8 -38 21 0 26 16 12 37 -6 10 -11 10 -20
1z"/>
<path d="M2570 250 c0 -26 -7 -69 -15 -96 -8 -27 -15 -73 -15 -101 l0 -53 183
0 182 1 -30 25 c-16 13 -59 48 -94 77 -36 28 -98 84 -138 123 l-73 70 0 -46z"/>
<path d="M8675 200 c-15 -30 -20 -113 -9 -169 l7 -31 68 0 c82 0 82 -1 38 108
-28 72 -62 122 -80 122 -5 0 -15 -13 -24 -30z"/>
<path d="M9786 105 c-42 -105 -42 -105 64 -105 81 0 89 2 83 18 -18 46 -97
151 -114 152 -4 0 -19 -29 -33 -65z"/>
<path d="M4806 143 c-4 -9 4 -31 19 -53 30 -44 31 -46 3 -53 -18 -5 -19 -8 -8
-21 8 -11 30 -16 66 -16 30 0 54 3 54 6 0 15 -33 74 -41 74 -5 0 -4 9 3 19 10
17 9 23 -6 40 -24 26 -81 29 -90 4z"/>
<path d="M4735 31 c-10 -18 17 -23 33 -7 15 15 15 16 -5 16 -12 0 -24 -4 -28
-9z"/>
<path d="M5095 10 c-3 -5 1 -10 10 -10 9 0 13 5 10 10 -3 6 -8 10 -10 10 -2 0
-7 -4 -10 -10z"/>
</g>
</svg>
